<?xml version="1.0" encoding="UTF-8"?><svg id="_圖層_1" xmlns="http://www.w3.org/2000/svg" viewBox="0 0 38 38"><defs><style>.cls-1{fill:#fff;stroke-width:0px;}</style></defs><path class="cls-1" d="m11.02,0h15.96c6.08,0,11.02,4.94,11.02,11.02v15.96c0,2.92-1.16,5.73-3.23,7.79-2.07,2.07-4.87,3.23-7.79,3.23h-15.96c-6.08,0-11.02-4.94-11.02-11.02v-15.96c0-2.92,1.16-5.73,3.23-7.79C5.29,1.16,8.1,0,11.02,0Zm-.38,3.8c-1.81,0-3.55.72-4.84,2-1.28,1.28-2,3.02-2,4.84v16.72c0,3.78,3.06,6.84,6.84,6.84h16.72c1.81,0,3.55-.72,4.84-2,1.28-1.28,2-3.02,2-4.84V10.64c0-3.78-3.06-6.84-6.84-6.84H10.64Zm18.33,2.85c.63,0,1.23.25,1.68.7s.7,1.05.7,1.68-.25,1.23-.7,1.68c-.45.45-1.05.7-1.68.7s-1.23-.25-1.68-.7c-.45-.45-.7-1.05-.7-1.68s.25-1.23.7-1.68,1.05-.7,1.68-.7Zm-9.97,2.85c2.52,0,4.94,1,6.72,2.78,1.78,1.78,2.78,4.2,2.78,6.72s-1,4.94-2.78,6.72c-1.78,1.78-4.2,2.78-6.72,2.78s-4.94-1-6.72-2.78c-1.78-1.78-2.78-4.2-2.78-6.72s1-4.94,2.78-6.72c1.78-1.78,4.2-2.78,6.72-2.78Zm0,3.8c-1.51,0-2.96.6-4.03,1.67-1.07,1.07-1.67,2.52-1.67,4.03s.6,2.96,1.67,4.03c1.07,1.07,2.52,1.67,4.03,1.67s2.96-.6,4.03-1.67c1.07-1.07,1.67-2.52,1.67-4.03s-.6-2.96-1.67-4.03c-1.07-1.07-2.52-1.67-4.03-1.67Z"/></svg>