<?xml version="1.0" encoding="UTF-8"?><svg id="_圖層_1" xmlns="http://www.w3.org/2000/svg" viewBox="0 0 29 36"><defs><style>.cls-1{fill:#5b5b5b;fill-rule:evenodd;stroke-width:0px;}</style></defs><path class="cls-1" d="m3,3h23v30H3V3Zm-3,0C0,1.34,1.34,0,3,0h23c1.66,0,3,1.34,3,3v30c0,1.66-1.34,3-3,3H3c-1.66,0-3-1.34-3-3V3Zm9,7c0,.83-.67,1.5-1.5,1.5s-1.5-.67-1.5-1.5.67-1.5,1.5-1.5,1.5.67,1.5,1.5Zm0,7c0,.83-.67,1.5-1.5,1.5s-1.5-.67-1.5-1.5.67-1.5,1.5-1.5,1.5.67,1.5,1.5Zm-1.5,8.5c.83,0,1.5-.67,1.5-1.5s-.67-1.5-1.5-1.5-1.5.67-1.5,1.5.67,1.5,1.5,1.5Zm3.5-15.5c0-.83.67-1.5,1.5-1.5h8c.83,0,1.5.67,1.5,1.5s-.67,1.5-1.5,1.5h-8c-.83,0-1.5-.67-1.5-1.5Zm1.5,5.5c-.83,0-1.5.67-1.5,1.5s.67,1.5,1.5,1.5h8c.83,0,1.5-.67,1.5-1.5s-.67-1.5-1.5-1.5h-8Zm-1.5,8.5c0-.83.67-1.5,1.5-1.5h8c.83,0,1.5.67,1.5,1.5s-.67,1.5-1.5,1.5h-8c-.83,0-1.5-.67-1.5-1.5Z"/></svg>