<svg width="29" height="36" viewBox="0 0 29 36" fill="none" xmlns="http://www.w3.org/2000/svg">
<path fill-rule="evenodd" clip-rule="evenodd" d="M3 3H26V33H3L3 3ZM0 3C0 1.34315 1.34315 0 3 0H26C27.6569 0 29 1.34315 29 3V33C29 34.6569 27.6569 36 26 36H3C1.34315 36 0 34.6569 0 33V3ZM9 10C9 10.8284 8.32843 11.5 7.5 11.5C6.67157 11.5 6 10.8284 6 10C6 9.17157 6.67157 8.5 7.5 8.5C8.32843 8.5 9 9.17157 9 10ZM9 17C9 17.8284 8.32843 18.5 7.5 18.5C6.67157 18.5 6 17.8284 6 17C6 16.1716 6.67157 15.5 7.5 15.5C8.32843 15.5 9 16.1716 9 17ZM7.5 25.5C8.32843 25.5 9 24.8284 9 24C9 23.1716 8.32843 22.5 7.5 22.5C6.67157 22.5 6 23.1716 6 24C6 24.8284 6.67157 25.5 7.5 25.5ZM11 10C11 9.17157 11.6716 8.5 12.5 8.5H20.5C21.3284 8.5 22 9.17157 22 10C22 10.8284 21.3284 11.5 20.5 11.5H12.5C11.6716 11.5 11 10.8284 11 10ZM12.5 15.5C11.6716 15.5 11 16.1716 11 17C11 17.8284 11.6716 18.5 12.5 18.5H20.5C21.3284 18.5 22 17.8284 22 17C22 16.1716 21.3284 15.5 20.5 15.5H12.5ZM11 24C11 23.1716 11.6716 22.5 12.5 22.5H20.5C21.3284 22.5 22 23.1716 22 24C22 24.8284 21.3284 25.5 20.5 25.5H12.5C11.6716 25.5 11 24.8284 11 24Z" fill="white"/>
</svg>
