<?xml version="1.0" encoding="UTF-8"?><svg id="_圖層_1" xmlns="http://www.w3.org/2000/svg" viewBox="0 0 44 31"><defs><style>.cls-1{fill:#fff;fill-rule:evenodd;stroke-width:0px;}</style></defs><path class="cls-1" d="m39.19.93c1.89.51,3.38,2.01,3.89,3.92.92,3.45.92,10.66.92,10.66,0,0,0,7.21-.92,10.66-.51,1.91-2,3.41-3.89,3.92-3.43.93-17.19.93-17.19.93,0,0-13.76,0-17.19-.93-1.89-.51-3.38-2.01-3.89-3.92-.92-3.45-.92-10.66-.92-10.66,0,0,0-7.21.92-10.66.51-1.9,2-3.41,3.89-3.92,3.43-.93,17.19-.93,17.19-.93,0,0,13.76,0,17.19.93Zm-10.16,14.57l-11.43,6.64v-13.29l11.43,6.64Z"/></svg>